<svg width="283" height="100" viewBox="0 0 283 100" fill="none" xmlns="http://www.w3.org/2000/svg">
<path fill-rule="evenodd" clip-rule="evenodd" d="M238.405 61.6344C234.668 63.0573 230.523 63.8683 226.017 63.8683C219.158 63.8683 208.918 60.4633 208.918 49.7435C208.918 41.3084 215.113 35.4657 225.096 35.4657C229.037 35.4657 233.593 36.127 238.405 38.6173V31.6051C235.079 30.1329 229.652 29.1163 223.866 29.1163C205.744 29.1163 193.662 37.2471 193.662 50.3569C193.662 62.9569 205.488 70.8836 224.277 70.8836C228.78 70.8836 234.053 70.071 238.405 68.5462V61.6344ZM243.728 61.4815C248.644 63.9208 253.15 64.6809 258.88 64.6809C262.518 64.6809 267.38 63.7663 267.38 60.3614C267.38 56.2968 260.828 55.5878 253.864 53.2998C248.233 51.4706 243.37 47.9637 243.37 41.5618C243.37 33.635 250.538 29.1132 263.183 29.1132C267.788 29.1132 272.858 29.7744 277.057 31.0952V38.1584C273.574 36.4807 269.376 35.2108 265.334 35.2108C262.211 35.2108 258.37 36.2273 258.37 39.0714C258.37 42.7297 265.229 43.6442 271.272 45.5753C278.693 48.0147 282.123 51.2141 282.123 57.718C282.123 62.7497 278.54 70.8789 260.264 70.8789C254.991 70.8789 248.695 70.0169 243.728 68.5415V61.4815ZM174.567 30.0277H189.159V70.0169H174.567V30.0277ZM152.093 51.3702C158.135 49.4375 162.587 45.424 162.587 40.5962C162.587 36.5316 161.054 33.3307 156.341 31.3996C152.706 29.9273 147.383 30.0277 143.492 30.0277H120.917V70.0169H135.559V35.9214H138.887C144.365 35.9214 147.537 37.9035 147.537 42.172C147.537 48.6759 137.657 52.0793 137.657 52.0793C141.497 57.6686 145.337 62.7497 147.64 65.1365C151.838 69.558 154.962 70.7785 160.847 70.7785C164.073 70.7785 167.35 70.6255 171.547 69.9627C165.709 66.4606 155.166 55.0269 152.093 51.3702Z" fill="#004775"/>
<path fill-rule="evenodd" clip-rule="evenodd" d="M0 50.0477C0 22.4562 22.5252 0.100281 50.3734 0.100281C78.1703 0.100281 100.747 22.4562 100.747 50.0477C100.747 77.6377 78.1719 99.9951 50.3734 99.9951C22.5252 99.9951 0 77.6393 0 50.0477Z" fill="#2B1C5C"/>
<path fill-rule="evenodd" clip-rule="evenodd" d="M76.1236 53.4526C76.1236 53.4526 79.4513 52.6894 82.6763 53.7075C84.8257 54.4166 86.1067 55.1304 89.3831 55.1304C92.096 55.0778 95.1685 53.655 95.1685 53.655C95.1685 53.655 95.5265 55.892 93.1202 57.7721C91.0205 59.4499 87.8469 60.1095 83.4452 56.9069C79.2972 53.8605 76.1236 53.4526 76.1236 53.4526Z" fill="white"/>
<path fill-rule="evenodd" clip-rule="evenodd" d="M35.0671 23.7277L27.5929 5.33444H27.6957L27.747 5.28345H27.7984V5.23246H27.8995L27.9509 5.18148C29.5385 4.41987 30.972 3.75864 32.6094 3.14999C33.2756 6.55492 36.3465 9.14566 39.9808 9.14566C41.9357 9.14524 43.8104 8.37425 45.1927 7.00223C46.575 5.6302 47.3518 3.76947 47.3522 1.82914C47.3522 1.37185 47.3522 0.610247 47.2511 0.101977C48.2752 4.76034e-06 49.2978 0 50.3733 0C51.2947 0 52.2675 -3.69787e-06 53.189 0.0509826C53.1376 0.559252 53.0878 1.37185 53.0878 1.82914C53.0878 5.8443 56.3642 9.09627 60.4592 9.09627C64.0952 9.09627 67.0633 6.40356 67.7295 3.04962C69.3669 3.60887 70.8004 4.21752 72.2853 4.92974L72.3366 4.98072H72.388L72.4394 5.0317H72.4907L72.5421 5.0827H72.5935L72.6448 5.13368L72.7476 5.18307L65.3248 23.6274C69.5226 24.5929 77.4061 28.0488 76.2278 30.2842C75.7157 31.3008 74.4877 32.2663 75.1523 32.5723C82.7805 36.1285 91.7909 40.3461 91.7909 40.3461C91.7909 40.3461 92.4057 40.7524 92.0975 41.3116C91.022 43.5471 88.2063 44.5126 88.2063 44.5126C88.2063 44.5126 87.8997 48.5262 83.3424 51.6252C82.4723 48.4242 79.708 46.0358 76.2262 46.0358C72.0798 46.0358 68.7007 49.3388 68.7007 53.4543C68.7007 57.5683 72.1809 60.7708 76.3289 60.7708C78.427 60.7708 80.2715 59.4516 81.6023 58.0797C82.6762 65.5986 77.2504 69.5628 77.2504 69.5628C74.4861 64.888 69.9303 63.6197 66.1933 64.7366C40.5972 52.7437 52.3719 33.5362 52.9337 32.6216C52.4182 32.7676 51.8837 32.8364 51.3477 32.8256C49.5153 32.8243 47.7583 32.1013 46.4625 30.8152C45.1668 29.5291 44.4383 27.7851 44.437 25.9663C44.437 25.0518 44.6409 24.2376 44.9491 23.425C44.8977 23.425 42.1335 25.4071 42.1335 29.0654C42.1335 34.7567 46.9974 35.8242 46.9974 35.8242C46.9974 35.8242 42.1848 43.7 45.0005 53.7108C48.073 64.684 59.7449 66.5658 66.9622 74.4925C76.2792 84.7551 75.1025 92.4269 74.7943 93.9024C70.7027 96.1187 66.3284 97.7769 61.79 98.8321L61.8414 98.7795C63.3263 82.7252 53.1376 74.2886 47.5063 69.3094C40.2874 62.9585 39.5715 58.639 39.5715 58.639C38.1379 60.2658 37.2165 62.2988 37.2165 62.2988C30.6124 51.1201 42.0805 38.9758 42.0805 38.9758C30.5611 44.7675 28.0023 58.3872 28.463 63.9256C29.0778 71.8524 33.2242 74.6965 33.2242 74.6965C33.5414 72.2481 34.1425 69.8443 35.0157 67.5329C38.2407 74.0862 45.4082 77.3892 47.4566 89.6338C48.4807 95.6311 47.4052 99.1874 47.0986 100C41.9966 99.701 36.9718 98.6218 32.2017 96.8006C7.2702 81.5047 9.01192 53.9642 9.01192 53.9642C12.5949 44.8695 21.0932 38.5679 21.0932 38.5679C18.0207 36.7898 13.7716 37.9083 13.7716 37.9083C21.3982 27.539 31.688 24.7427 35.0671 23.7277Z" fill="white"/>
<path fill-rule="evenodd" clip-rule="evenodd" d="M67.4728 33.7882C69.3671 33.7882 70.9033 32.5693 71.4651 30.8406C71.4651 30.8406 69.725 29.977 67.6767 29.1134C65.7311 28.3008 63.6314 27.7925 63.6314 27.7925C62.3536 31.4508 65.1677 33.7882 67.4728 33.7882Z" fill="#2B1C5C"/>
</svg>
